# This file uses centimeters as units for non-parametric coordinates.

v -11.929729 60.279236 14.413088
v -16.183537 55.400948 0.872795
v -10.603573 57.783600 1.093812
v -8.444843 96.990997 13.574467
v -23.571014 98.330238 0.053787
v -18.884953 98.636322 13.331945
v -10.629890 99.236526 0.267703
v -5.265182 59.955170 -12.082220
v -17.065517 98.024124 -13.345456
v -6.625420 98.700531 -13.102920
v -15.675369 59.278770 -13.030170
v -22.339920 59.890976 13.465153
v -25.385918 56.877304 0.248623
v -14.353653 98.689171 0.325251
v -11.820541 79.639488 0.563302
v -24.088570 78.733177 0.165841
v -12.815566 94.036545 11.189726
v -11.170944 75.438583 16.625834
v -13.146585 94.973244 11.075605
v -11.164032 74.438599 16.628218
v -11.913780 94.973244 7.499679
v -9.931179 74.438599 13.052296
v -11.582760 94.036545 7.613800
v -9.938103 75.438583 13.049908
v 7.715294 76.511398 21.674835
v 8.948088 76.511398 18.098911
v 8.207901 77.133530 17.843731
v 6.975105 77.133530 21.419655
v 10.759962 91.748260 19.317448
v 11.992772 91.748260 15.741528
v 11.127533 91.345306 15.443233
v 9.894727 91.345306 19.019154
v 6.361089 100.600883 17.800926
v 7.593895 100.600883 14.225006
v 7.150153 99.717888 14.072025
v 5.917346 99.717888 17.647943
v -3.410799 101.754700 14.432041
v -2.177992 101.754700 10.856119
v -1.846972 100.818001 10.970240
v -3.079778 100.818001 14.546162
v -11.603851 94.036545 -10.077087
v -9.959229 75.438583 -15.513193
v -11.934871 94.973244 -9.962967
v -9.952317 74.438599 -15.515577
v -10.702065 94.973244 -6.387041
v -8.719464 74.438599 -11.939657
v -10.371045 94.036545 -6.501162
v -8.726388 75.438583 -11.937269
v 8.927009 76.511398 -20.562197
v 10.159802 76.511398 -16.986269
v 9.419616 77.133530 -16.731089
v 8.186820 77.133530 -20.307016
v 11.971677 91.748260 -18.204809
v 13.204487 91.748260 -14.628887
v 12.339248 91.345306 -14.330593
v 11.106441 91.345306 -17.906511
v 7.572803 100.600883 -16.688288
v 8.805610 100.600883 -13.112366
v 8.361867 99.717888 -12.959387
v 7.129061 99.717888 -16.535303
v -2.199084 101.754700 -13.319399
v -0.966278 101.754700 -9.743481
v -0.635258 100.818001 -9.857601
v -1.868063 100.818001 -13.433519
vt 0.168412 0.971456
vt 0.222720 0.917122
vt 0.223328 0.971456
vt 0.547386 0.971456
vt 0.492545 0.879460
vt 0.547129 0.879460
vt 0.010098 0.729789
vt 0.056349 0.866755
vt 0.011840 0.866755
vt 0.276587 0.971456
vt 0.436146 0.879460
vt 0.436250 0.971456
vt 0.109731 0.729789
vt 0.153024 0.866755
vt 0.108140 0.866755
vt 0.168723 0.879460
vt 0.018348 0.971456
vt 0.010300 0.879460
vt 0.221745 0.879460
vt 0.490355 0.971456
vt 0.490951 0.971456
vt 0.053822 0.729789
vt 0.056110 0.809788
vt 0.276883 0.879460
vt 0.153080 0.729789
vt 0.153239 0.798561
vt 0.105061 0.866755
vt 0.201361 0.866755
vt 0.100999 0.729789
vt 0.200632 0.729789
vt 0.375000 0.000000
vt 0.425000 0.000000
vt 0.425000 0.250000
vt 0.375000 0.250000
vt 0.425000 0.500000
vt 0.375000 0.500000
vt 0.425000 0.750000
vt 0.375000 0.750000
vt 0.425000 1.000000
vt 0.375000 1.000000
vt 0.625000 0.000000
vt 0.875000 0.000000
vt 0.875000 0.250000
vt 0.625000 0.250000
vt 0.125000 0.000000
vt 0.125000 0.250000
vt 0.575000 0.250000
vt 0.625000 0.500000
vt 0.575000 0.500000
vt 0.575000 0.750000
vt 0.625000 0.750000
vt 0.575000 1.000000
vt 0.625000 1.000000
vt 0.575000 0.000000
vt 0.525000 0.250000
vt 0.525000 0.500000
vt 0.525000 0.750000
vt 0.525000 1.000000
vt 0.525000 0.000000
vt 0.475000 0.250000
vt 0.475000 0.500000
vt 0.475000 0.750000
vt 0.475000 1.000000
vt 0.475000 0.000000
vt 0.375000 0.000000
vt 0.375000 0.250000
vt 0.425000 0.250000
vt 0.425000 0.000000
vt 0.375000 0.500000
vt 0.425000 0.500000
vt 0.375000 0.750000
vt 0.425000 0.750000
vt 0.375000 1.000000
vt 0.425000 1.000000
vt 0.625000 0.000000
vt 0.625000 0.250000
vt 0.875000 0.250000
vt 0.875000 0.000000
vt 0.125000 0.000000
vt 0.125000 0.250000
vt 0.575000 0.250000
vt 0.575000 0.500000
vt 0.625000 0.500000
vt 0.575000 0.750000
vt 0.625000 0.750000
vt 0.575000 1.000000
vt 0.625000 1.000000
vt 0.575000 0.000000
vt 0.525000 0.250000
vt 0.525000 0.500000
vt 0.525000 0.750000
vt 0.525000 1.000000
vt 0.525000 0.000000
vt 0.475000 0.250000
vt 0.475000 0.500000
vt 0.475000 0.750000
vt 0.475000 1.000000
vt 0.475000 0.000000
vn 0.244928 -0.966400 0.077983
vn 0.244928 -0.966400 0.077983
vn 0.244928 -0.966400 0.077983
vn 0.156970 0.984511 -0.078091
vn 0.156970 0.984511 -0.078091
vn 0.156970 0.984511 -0.078091
vn 0.968847 -0.086669 0.232001
vn 0.968847 -0.086669 0.232001
vn 0.968847 -0.086669 0.232001
vn 0.024865 -0.025454 -0.999367
vn 0.024865 -0.025454 -0.999367
vn 0.024865 -0.025454 -0.999367
vn -0.981157 -0.036747 -0.189683
vn -0.981157 -0.036747 -0.189683
vn -0.981157 -0.036747 -0.189683
vn -0.022368 0.005431 0.999735
vn -0.022368 0.005431 0.999735
vn -0.022368 0.005431 0.999735
vn -0.168663 -0.963593 0.207466
vn -0.168663 -0.963593 0.207466
vn -0.168663 -0.963593 0.207466
vn 0.332956 0.911213 0.242550
vn 0.332956 0.911213 0.242550
vn 0.332956 0.911213 0.242550
vn 0.931198 0.069098 0.357906
vn 0.931198 0.069098 0.357906
vn 0.931198 0.069098 0.357906
vn 0.090995 -0.004839 -0.995840
vn 0.090995 -0.004839 -0.995840
vn 0.090995 -0.004839 -0.995840
vn -0.911538 0.060000 -0.406816
vn -0.911538 0.060000 -0.406816
vn -0.911538 0.060000 -0.406816
vn -0.091801 0.031450 0.995281
vn -0.091801 0.031450 0.995281
vn -0.091801 0.031450 0.995281
vn 0.257309 -0.954803 -0.148809
vn 0.257309 -0.954803 -0.148809
vn 0.257309 -0.954803 -0.148809
vn -0.421759 0.900827 -0.103108
vn -0.421759 0.900827 -0.103108
vn -0.421759 0.900827 -0.103108
vn 0.916569 -0.150195 -0.370599
vn 0.916569 -0.150195 -0.370599
vn 0.916569 -0.150195 -0.370599
vn -0.942853 0.026799 0.332129
vn -0.942853 0.026799 0.332129
vn -0.942853 0.026799 0.332129
vn -0.155226 -0.986826 -0.045594
vn -0.155226 -0.986826 -0.045594
vn -0.155226 -0.986826 -0.045594
vn -0.064329 0.997834 -0.013755
vn -0.064329 0.997834 -0.013755
vn -0.064329 0.997834 -0.013755
vn 0.984937 0.030092 -0.170278
vn 0.984937 0.030092 -0.170278
vn 0.984937 0.030092 -0.170278
vn -0.971170 0.087362 0.221802
vn -0.971170 0.087362 0.221802
vn -0.971170 0.087362 0.221802
vn -0.380748 0.776015 0.502824
vn -0.380748 0.776015 0.502824
vn -0.380748 0.776015 0.502824
vn 0.986762 -0.153164 0.053316
vn 0.986762 -0.153164 0.053316
vn 0.986762 -0.153164 0.053316
vn -0.933586 0.022611 -0.357640
vn -0.933586 0.022611 -0.357640
vn -0.933586 0.022611 -0.357640
vn 0.035914 -0.999244 0.014866
vn 0.035914 -0.999244 0.014866
vn 0.035914 -0.999244 0.014866
vn 0.062099 -0.997622 0.029890
vn 0.062099 -0.997622 0.029890
vn 0.062099 -0.997622 0.029890
vn 0.323289 0.830360 -0.453858
vn 0.323289 0.830360 -0.453858
vn 0.323289 0.830360 -0.453858
vn 0.994059 0.060674 -0.090362
vn 0.994059 0.060674 -0.090362
vn 0.994059 0.060674 -0.090362
vn -0.958095 0.066118 0.278714
vn -0.958095 0.066118 0.278714
vn -0.958095 0.066118 0.278714
vn -0.325931 0.000000 0.945394
vn -0.325931 0.000000 0.945393
vn -0.325931 0.000000 0.945394
vn -0.325931 0.000000 0.945393
vn -0.519946 0.835180 -0.179252
vn -0.519946 0.835180 -0.179252
vn -0.519946 0.835180 -0.179252
vn -0.519946 0.835180 -0.179252
vn 0.325928 -0.000000 -0.945395
vn 0.325928 -0.000000 -0.945395
vn 0.325928 -0.000000 -0.945395
vn 0.325928 -0.000000 -0.945395
vn 0.519946 -0.835179 0.179254
vn 0.519946 -0.835179 0.179254
vn 0.519946 -0.835179 0.179254
vn 0.519946 -0.835179 0.179254
vn -0.945366 -0.007317 -0.325928
vn -0.945366 -0.007317 -0.325928
vn -0.945366 -0.007317 -0.325928
vn -0.945366 -0.007317 -0.325928
vn -0.885550 -0.350139 -0.305294
vn -0.885550 -0.350139 -0.305294
vn -0.885550 -0.350139 -0.305294
vn -0.885550 -0.350139 -0.305294
vn 0.099964 -0.994394 0.034464
vn 0.099964 -0.994394 0.034464
vn 0.099964 -0.994394 0.034464
vn 0.099964 -0.994394 0.034464
vn 0.259899 -0.033532 -0.965053
vn 0.259899 -0.033532 -0.965053
vn 0.259899 -0.033532 -0.965053
vn 0.259899 -0.033532 -0.965053
vn -0.085260 0.995925 -0.029393
vn -0.085260 0.995925 -0.029393
vn -0.085260 0.995925 -0.029393
vn -0.085260 0.995925 -0.029393
vn -0.259900 0.033532 0.965053
vn -0.259900 0.033532 0.965053
vn -0.259900 0.033532 0.965053
vn -0.259899 0.033532 0.965053
vn 0.936458 -0.137177 0.322845
vn 0.936458 -0.137177 0.322845
vn 0.936458 -0.137177 0.322845
vn 0.936458 -0.137177 0.322845
vn 0.292907 -0.210029 -0.932788
vn 0.292907 -0.210029 -0.932788
vn 0.292907 -0.210029 -0.932788
vn 0.292907 -0.210029 -0.932788
vn -0.936371 0.137839 -0.322815
vn -0.936371 0.137839 -0.322815
vn -0.936371 0.137839 -0.322815
vn -0.936371 0.137839 -0.322815
vn -0.292907 0.210029 0.932788
vn -0.292907 0.210029 0.932788
vn -0.292907 0.210029 0.932788
vn -0.292907 0.210029 0.932788
vn 0.836844 0.465251 0.288503
vn 0.836844 0.465251 0.288503
vn 0.836844 0.465251 0.288503
vn 0.836844 0.465251 0.288503
vn 0.325926 0.000000 -0.945395
vn 0.325926 0.000000 -0.945395
vn 0.325926 0.000000 -0.945395
vn 0.325926 0.000000 -0.945395
vn -0.844745 -0.448990 -0.291228
vn -0.844745 -0.448990 -0.291228
vn -0.844745 -0.448990 -0.291228
vn -0.844745 -0.448990 -0.291228
vn -0.325927 -0.000001 0.945395
vn -0.325927 -0.000001 0.945395
vn -0.325927 -0.000001 0.945395
vn -0.325927 -0.000001 0.945395
vn 0.104881 0.993827 0.036158
vn 0.104881 0.993827 0.036158
vn 0.104881 0.993827 0.036158
vn 0.104881 0.993827 0.036158
vn 0.325925 -0.000001 -0.945396
vn 0.325925 -0.000001 -0.945395
vn 0.325925 -0.000001 -0.945395
vn 0.325925 -0.000001 -0.945396
vn -0.108562 -0.993385 -0.037426
vn -0.108562 -0.993385 -0.037426
vn -0.108562 -0.993385 -0.037426
vn -0.108562 -0.993385 -0.037426
vn -0.325925 -0.000001 0.945396
vn -0.325925 -0.000001 0.945396
vn -0.325925 -0.000001 0.945396
vn -0.325925 -0.000001 0.945396
vn -0.325931 0.000000 -0.945394
vn -0.325931 0.000000 -0.945393
vn -0.325931 0.000000 -0.945393
vn -0.325931 0.000000 -0.945393
vn -0.519946 0.835180 0.179251
vn -0.519946 0.835180 0.179251
vn -0.519946 0.835180 0.179251
vn -0.519946 0.835180 0.179251
vn 0.325929 -0.000000 0.945394
vn 0.325929 -0.000000 0.945394
vn 0.325929 -0.000000 0.945394
vn 0.325929 -0.000000 0.945394
vn 0.519946 -0.835179 -0.179254
vn 0.519946 -0.835179 -0.179254
vn 0.519946 -0.835179 -0.179254
vn 0.519946 -0.835179 -0.179254
vn -0.945366 -0.007317 0.325929
vn -0.945366 -0.007317 0.325929
vn -0.945366 -0.007317 0.325929
vn -0.945366 -0.007317 0.325929
vn -0.885549 -0.350139 0.305295
vn -0.885549 -0.350139 0.305295
vn -0.885549 -0.350139 0.305295
vn -0.885549 -0.350139 0.305295
vn 0.099964 -0.994394 -0.034464
vn 0.099964 -0.994394 -0.034464
vn 0.099964 -0.994394 -0.034464
vn 0.099964 -0.994394 -0.034464
vn 0.259898 -0.033532 0.965054
vn 0.259898 -0.033532 0.965054
vn 0.259898 -0.033532 0.965054
vn 0.259898 -0.033532 0.965054
vn -0.085260 0.995925 0.029393
vn -0.085260 0.995925 0.029393
vn -0.085260 0.995925 0.029393
vn -0.085260 0.995925 0.029393
vn -0.259900 0.033532 -0.965053
vn -0.259900 0.033532 -0.965053
vn -0.259900 0.033532 -0.965053
vn -0.259900 0.033532 -0.965053
vn 0.936458 -0.137177 -0.322845
vn 0.936458 -0.137177 -0.322845
vn 0.936458 -0.137177 -0.322845
vn 0.936458 -0.137177 -0.322845
vn 0.292908 -0.210029 0.932788
vn 0.292908 -0.210029 0.932788
vn 0.292908 -0.210029 0.932788
vn 0.292908 -0.210029 0.932788
vn -0.936371 0.137839 0.322814
vn -0.936371 0.137839 0.322814
vn -0.936371 0.137839 0.322814
vn -0.936371 0.137839 0.322814
vn -0.292908 0.210030 -0.932788
vn -0.292908 0.210030 -0.932788
vn -0.292908 0.210030 -0.932788
vn -0.292908 0.210030 -0.932787
vn 0.836844 0.465251 -0.288504
vn 0.836844 0.465251 -0.288504
vn 0.836844 0.465251 -0.288504
vn 0.836844 0.465251 -0.288504
vn 0.325926 -0.000000 0.945395
vn 0.325926 -0.000000 0.945395
vn 0.325926 -0.000000 0.945395
vn 0.325926 -0.000000 0.945395
vn -0.844745 -0.448990 0.291228
vn -0.844745 -0.448990 0.291228
vn -0.844745 -0.448990 0.291228
vn -0.844745 -0.448990 0.291228
vn -0.325931 -0.000002 -0.945394
vn -0.325931 -0.000002 -0.945394
vn -0.325931 -0.000002 -0.945394
vn -0.325931 -0.000002 -0.945394
vn 0.104881 0.993827 -0.036161
vn 0.104881 0.993827 -0.036161
vn 0.104881 0.993827 -0.036161
vn 0.104881 0.993827 -0.036161
vn 0.325925 -0.000002 0.945396
vn 0.325925 -0.000002 0.945396
vn 0.325925 -0.000002 0.945396
vn 0.325925 -0.000002 0.945396
vn -0.108562 -0.993385 0.037428
vn -0.108562 -0.993385 0.037428
vn -0.108562 -0.993385 0.037428
vn -0.108562 -0.993385 0.037428
vn -0.325926 -0.000002 -0.945395
vn -0.325926 -0.000002 -0.945395
vn -0.325926 -0.000002 -0.945395
vn -0.325926 -0.000002 -0.945395
s off
f 1/1/1 2/2/2 3/3/3
f 4/4/4 5/5/5 6/6/6
f 1/7/7 7/8/8 4/9/9
f 8/10/10 9/11/11 10/12/12
f 11/13/13 5/14/14 9/15/15
f 12/16/16 4/17/17 6/18/18
f 1/1/19 13/19/20 2/2/21
f 4/4/22 7/20/23 14/21/24
f 1/7/25 3/22/26 15/23/27
f 8/10/28 11/24/29 9/11/30
f 11/13/31 13/25/32 16/26/33
f 12/16/34 1/1/35 4/17/36
f 2/2/37 11/24/38 3/3/39
f 14/21/40 9/11/41 5/5/42
f 15/23/43 10/27/44 7/8/45
f 16/26/46 6/28/47 5/14/48
f 13/19/49 11/24/50 2/2/51
f 7/20/52 10/12/53 9/11/54
f 3/22/55 8/29/56 10/27/57
f 13/25/58 12/30/59 6/28/60
f 4/4/61 14/21/62 5/5/63
f 1/7/64 15/23/65 7/8/66
f 11/13/67 16/26/68 5/14/69
f 1/1/70 12/16/71 13/19/72
f 11/24/73 8/10/74 3/3/75
f 9/11/76 14/21/77 7/20/78
f 10/27/79 15/23/80 3/22/81
f 6/28/82 16/26/83 13/25/84
f 17/31/85 40/32/86 37/33/87 19/34/88
f 19/34/89 37/33/90 38/35/91 21/36/92
f 21/36/93 38/35/94 39/37/95 23/38/96
f 23/38/97 39/37/98 40/39/99 17/40/100
f 18/41/101 24/42/102 22/43/103 20/44/104
f 23/45/105 17/31/106 19/34/107 21/46/108
f 25/47/109 20/44/110 22/48/111 26/49/112
f 27/50/113 26/49/114 22/48/115 24/51/116
f 28/52/117 27/50/118 24/51/119 18/53/120
f 25/47/121 28/54/122 18/41/123 20/44/124
f 29/55/125 25/47/126 26/49/127 30/56/128
f 31/57/129 30/56/130 26/49/131 27/50/132
f 32/58/133 31/57/134 27/50/135 28/52/136
f 29/55/137 32/59/138 28/54/139 25/47/140
f 33/60/141 29/55/142 30/56/143 34/61/144
f 35/62/145 34/61/146 30/56/147 31/57/148
f 36/63/149 35/62/150 31/57/151 32/58/152
f 33/60/153 36/64/154 32/59/155 29/55/156
f 37/33/157 33/60/158 34/61/159 38/35/160
f 39/37/161 38/35/162 34/61/163 35/62/164
f 40/39/165 39/37/166 35/62/167 36/63/168
f 37/33/169 40/32/170 36/64/171 33/60/172
f 41/65/173 43/66/174 61/67/175 64/68/176
f 43/66/177 45/69/178 62/70/179 61/67/180
f 45/69/181 47/71/182 63/72/183 62/70/184
f 47/71/185 41/73/186 64/74/187 63/72/188
f 42/75/189 44/76/190 46/77/191 48/78/192
f 47/79/193 45/80/194 43/66/195 41/65/196
f 49/81/197 50/82/198 46/83/199 44/76/200
f 51/84/201 48/85/202 46/83/203 50/82/204
f 52/86/205 42/87/206 48/85/207 51/84/208
f 49/81/209 44/76/210 42/75/211 52/88/212
f 53/89/213 54/90/214 50/82/215 49/81/216
f 55/91/217 51/84/218 50/82/219 54/90/220
f 56/92/221 52/86/222 51/84/223 55/91/224
f 53/89/225 49/81/226 52/88/227 56/93/228
f 57/94/229 58/95/230 54/90/231 53/89/232
f 59/96/233 55/91/234 54/90/235 58/95/236
f 60/97/237 56/92/238 55/91/239 59/96/240
f 57/94/241 53/89/242 56/93/243 60/98/244
f 61/67/245 62/70/246 58/95/247 57/94/248
f 63/72/249 59/96/250 58/95/251 62/70/252
f 64/74/253 60/97/254 59/96/255 63/72/256
f 61/67/257 57/94/258 60/98/259 64/68/260
